{
 "cells": [
  {
   "cell_type": "markdown",
   "id": "5ff938f5-dec0-4843-9a52-972fa556edc4",
   "metadata": {},
   "source": [
    "## OpenSMILE tutorial notebook: AUDIO\n",
    "\n",
    "This notebook provides an introduction to [OpenSMILE](https://audeering.github.io/opensmile/), a tool for detecting signals and features for emotion recognition from speech audio.\n",
    "\n",
    "Pros:\n",
    "* Computes low level features such as loudness, voice quality, pitch, etc.\n",
    "* It is free.\n",
    "* Keypoints detected from video using OpenPose can be used for applications related to affective computing and other behavioral reserach, etc.\n",
    "\n",
    "Cons:\n",
    "* Cannot differentiate between vocal signals if multiple speakers are talking simultaneously.\n",
    "\n",
    "To learn more about the audio features extracted, please refer to [the book](https://link.springer.com/book/10.1007/978-3-319-27299-3)"
   ]
  },
  {
   "cell_type": "markdown",
   "id": "1b7c0640-8ae6-42c6-9811-5a0517cac376",
   "metadata": {},
   "source": [
    "## Data preparation\n",
    "\n",
    "OpenSMILE only takes .wav files as input and analyzes such file to extract acoustic and prosodic features available in OpenSMILE."
   ]
  },
  {
   "cell_type": "code",
   "execution_count": 11,
   "id": "3c99c8a9-1958-429d-a398-4cf02da150a0",
   "metadata": {
    "execution": {
     "iopub.execute_input": "2023-07-19T21:48:50.147700Z",
     "iopub.status.busy": "2023-07-19T21:48:50.146430Z",
     "iopub.status.idle": "2023-07-19T21:48:50.151480Z",
     "shell.execute_reply": "2023-07-19T21:48:50.150497Z",
     "shell.execute_reply.started": "2023-07-19T21:48:50.147670Z"
    }
   },
   "outputs": [],
   "source": [
    "# processing libraries\n",
    "import os \n",
    "import pandas as pd\n",
    "import numpy as np\n",
    "import csv"
   ]
  },
  {
   "cell_type": "markdown",
   "id": "84f8aead-1851-4c81-98d1-03f522b08878",
   "metadata": {},
   "source": [
    "### Specify path settings"
   ]
  },
  {
   "cell_type": "code",
   "execution_count": 12,
   "id": "c2767a15-2419-4831-9468-5f393e1f1453",
   "metadata": {
    "execution": {
     "iopub.execute_input": "2023-07-19T21:48:52.851744Z",
     "iopub.status.busy": "2023-07-19T21:48:52.850761Z",
     "iopub.status.idle": "2023-07-19T21:48:52.860504Z",
     "shell.execute_reply": "2023-07-19T21:48:52.859731Z",
     "shell.execute_reply.started": "2023-07-19T21:48:52.851714Z"
    }
   },
   "outputs": [],
   "source": [
    "# get audio files from conversation video files in .wav format \n",
    "BASE_PATH = os.getcwd()\n",
    "\n",
    "# where our input videos are stored\n",
    "INPUT_VIDEOS = os.path.join(BASE_PATH,'conversation_data/ZT') \n",
    "\n",
    "# where our output audio files will be stored\n",
    "OUTPUT_AUDIOS = os.path.join(BASE_PATH, 'conversation_audios')\n",
    "\n",
    "#where final csv files containing audio features will be stored\n",
    "OUTPUT_CSVS = os.path.join(BASE_PATH,'opensmile_csvs')\n",
    "\n",
    "#create a directory to save the csv files\n",
    "try:\n",
    "    os.mkdir(OUTPUT_AUDIOS)\n",
    "    os.mkdir(OUTPUT_CSVS)\n",
    "    \n",
    "             \n",
    "except:\n",
    "    pass"
   ]
  },
  {
   "cell_type": "markdown",
   "id": "7a9421bb-853f-4501-8dd3-4630d6f9ada1",
   "metadata": {},
   "source": [
    "### Converting video files to audio files"
   ]
  },
  {
   "cell_type": "code",
   "execution_count": 13,
   "id": "5c2f2d81-4419-4b3f-a527-35ab4e0e5dce",
   "metadata": {
    "execution": {
     "iopub.execute_input": "2023-07-19T21:48:58.319776Z",
     "iopub.status.busy": "2023-07-19T21:48:58.319015Z",
     "iopub.status.idle": "2023-07-19T21:49:15.843504Z",
     "shell.execute_reply": "2023-07-19T21:49:15.842220Z",
     "shell.execute_reply.started": "2023-07-19T21:48:58.319732Z"
    }
   },
   "outputs": [
    {
     "name": "stdout",
     "output_type": "stream",
     "text": [
      "ffmpeg version 4.2.7-0ubuntu0.1 Copyright (c) 2000-2022 the FFmpeg developers\n",
      "  built with gcc 9 (Ubuntu 9.4.0-1ubuntu1~20.04.1)\n",
      "  configuration: --prefix=/usr --extra-version=0ubuntu0.1 --toolchain=hardened --libdir=/usr/lib/x86_64-linux-gnu --incdir=/usr/include/x86_64-linux-gnu --arch=amd64 --enable-gpl --disable-stripping --enable-avresample --disable-filter=resample --enable-avisynth --enable-gnutls --enable-ladspa --enable-libaom --enable-libass --enable-libbluray --enable-libbs2b --enable-libcaca --enable-libcdio --enable-libcodec2 --enable-libflite --enable-libfontconfig --enable-libfreetype --enable-libfribidi --enable-libgme --enable-libgsm --enable-libjack --enable-libmp3lame --enable-libmysofa --enable-libopenjpeg --enable-libopenmpt --enable-libopus --enable-libpulse --enable-librsvg --enable-librubberband --enable-libshine --enable-libsnappy --enable-libsoxr --enable-libspeex --enable-libssh --enable-libtheora --enable-libtwolame --enable-libvidstab --enable-libvorbis --enable-libvpx --enable-libwavpack --enable-libwebp --enable-libx265 --enable-libxml2 --enable-libxvid --enable-libzmq --enable-libzvbi --enable-lv2 --enable-omx --enable-openal --enable-opencl --enable-opengl --enable-sdl2 --enable-libdc1394 --enable-libdrm --enable-libiec61883 --enable-nvenc --enable-chromaprint --enable-frei0r --enable-libx264 --enable-shared\n",
      "  libavutil      56. 31.100 / 56. 31.100\n",
      "  libavcodec     58. 54.100 / 58. 54.100\n",
      "  libavformat    58. 29.100 / 58. 29.100\n",
      "  libavdevice    58.  8.100 / 58.  8.100\n",
      "  libavfilter     7. 57.100 /  7. 57.100\n",
      "  libavresample   4.  0.  0 /  4.  0.  0\n",
      "  libswscale      5.  5.100 /  5.  5.100\n",
      "  libswresample   3.  5.100 /  3.  5.100\n",
      "  libpostproc    55.  5.100 / 55.  5.100\n",
      "Input #0, mov,mp4,m4a,3gp,3g2,mj2, from '/notebooks/conversation_data/ZT/1058_ZT_4_Aff_Video_left.mp4':\n",
      "  Metadata:\n",
      "    major_brand     : isom\n",
      "    minor_version   : 512\n",
      "    compatible_brands: isomiso2avc1mp41\n",
      "    encoder         : Lavf58.45.100\n",
      "  Duration: 00:10:44.99, start: 0.000000, bitrate: 137 kb/s\n",
      "    Stream #0:0(und): Video: h264 (High) (avc1 / 0x31637661), yuv420p, 640x720, 63 kb/s, 20 fps, 20 tbr, 10240 tbn, 40 tbc (default)\n",
      "    Metadata:\n",
      "      handler_name    : H.264/AVC video\n",
      "    Stream #0:1(und): Audio: aac (LC) (mp4a / 0x6134706D), 48000 Hz, mono, fltp, 68 kb/s (default)\n",
      "    Metadata:\n",
      "      handler_name    : AAC audio\n",
      "Stream mapping:\n",
      "  Stream #0:1 -> #0:0 (aac (native) -> pcm_s16le (native))\n",
      "Press [q] to stop, [?] for help\n",
      "Output #0, wav, to '/notebooks/conversation_audios/1058_ZT_4_Aff_Video_left.wav':\n",
      "  Metadata:\n",
      "    major_brand     : isom\n",
      "    minor_version   : 512\n",
      "    compatible_brands: isomiso2avc1mp41\n",
      "    ISFT            : Lavf58.29.100\n",
      "    Stream #0:0(und): Audio: pcm_s16le ([1][0][0][0] / 0x0001), 16000 Hz, stereo, s16, 512 kb/s (default)\n",
      "    Metadata:\n",
      "      handler_name    : AAC audio\n",
      "      encoder         : Lavc58.54.100 pcm_s16le\n",
      "size=   40311kB time=00:10:44.97 bitrate= 512.0kbits/s speed= 382x    \n",
      "video:0kB audio:40311kB subtitle:0kB other streams:0kB global headers:0kB muxing overhead: 0.000189%\n",
      "ffmpeg version 4.2.7-0ubuntu0.1 Copyright (c) 2000-2022 the FFmpeg developers\n",
      "  built with gcc 9 (Ubuntu 9.4.0-1ubuntu1~20.04.1)\n",
      "  configuration: --prefix=/usr --extra-version=0ubuntu0.1 --toolchain=hardened --libdir=/usr/lib/x86_64-linux-gnu --incdir=/usr/include/x86_64-linux-gnu --arch=amd64 --enable-gpl --disable-stripping --enable-avresample --disable-filter=resample --enable-avisynth --enable-gnutls --enable-ladspa --enable-libaom --enable-libass --enable-libbluray --enable-libbs2b --enable-libcaca --enable-libcdio --enable-libcodec2 --enable-libflite --enable-libfontconfig --enable-libfreetype --enable-libfribidi --enable-libgme --enable-libgsm --enable-libjack --enable-libmp3lame --enable-libmysofa --enable-libopenjpeg --enable-libopenmpt --enable-libopus --enable-libpulse --enable-librsvg --enable-librubberband --enable-libshine --enable-libsnappy --enable-libsoxr --enable-libspeex --enable-libssh --enable-libtheora --enable-libtwolame --enable-libvidstab --enable-libvorbis --enable-libvpx --enable-libwavpack --enable-libwebp --enable-libx265 --enable-libxml2 --enable-libxvid --enable-libzmq --enable-libzvbi --enable-lv2 --enable-omx --enable-openal --enable-opencl --enable-opengl --enable-sdl2 --enable-libdc1394 --enable-libdrm --enable-libiec61883 --enable-nvenc --enable-chromaprint --enable-frei0r --enable-libx264 --enable-shared\n",
      "  libavutil      56. 31.100 / 56. 31.100\n",
      "  libavcodec     58. 54.100 / 58. 54.100\n",
      "  libavformat    58. 29.100 / 58. 29.100\n",
      "  libavdevice    58.  8.100 / 58.  8.100\n",
      "  libavfilter     7. 57.100 /  7. 57.100\n",
      "  libavresample   4.  0.  0 /  4.  0.  0\n",
      "  libswscale      5.  5.100 /  5.  5.100\n",
      "  libswresample   3.  5.100 /  3.  5.100\n",
      "  libpostproc    55.  5.100 / 55.  5.100\n",
      "Input #0, mov,mp4,m4a,3gp,3g2,mj2, from '/notebooks/conversation_data/ZT/1058_ZT_4_Aff_Video_right.mp4':\n",
      "  Metadata:\n",
      "    major_brand     : isom\n",
      "    minor_version   : 512\n",
      "    compatible_brands: isomiso2avc1mp41\n",
      "    encoder         : Lavf58.45.100\n",
      "  Duration: 00:10:44.99, start: 0.000000, bitrate: 178 kb/s\n",
      "    Stream #0:0(und): Video: h264 (High) (avc1 / 0x31637661), yuv420p, 640x720, 104 kb/s, 20 fps, 20 tbr, 10240 tbn, 40 tbc (default)\n",
      "    Metadata:\n",
      "      handler_name    : H.264/AVC video\n",
      "    Stream #0:1(und): Audio: aac (LC) (mp4a / 0x6134706D), 48000 Hz, mono, fltp, 68 kb/s (default)\n",
      "    Metadata:\n",
      "      handler_name    : AAC audio\n",
      "Stream mapping:\n",
      "  Stream #0:1 -> #0:0 (aac (native) -> pcm_s16le (native))\n",
      "Press [q] to stop, [?] for help\n",
      "Output #0, wav, to '/notebooks/conversation_audios/1058_ZT_4_Aff_Video_right.wav':\n",
      "  Metadata:\n",
      "    major_brand     : isom\n",
      "    minor_version   : 512\n",
      "    compatible_brands: isomiso2avc1mp41\n",
      "    ISFT            : Lavf58.29.100\n",
      "    Stream #0:0(und): Audio: pcm_s16le ([1][0][0][0] / 0x0001), 16000 Hz, stereo, s16, 512 kb/s (default)\n",
      "    Metadata:\n",
      "      handler_name    : AAC audio\n",
      "      encoder         : Lavc58.54.100 pcm_s16le\n",
      "size=   40311kB time=00:10:44.97 bitrate= 512.0kbits/s speed= 532x    \n",
      "video:0kB audio:40311kB subtitle:0kB other streams:0kB global headers:0kB muxing overhead: 0.000189%\n",
      "ffmpeg version 4.2.7-0ubuntu0.1 Copyright (c) 2000-2022 the FFmpeg developers\n",
      "  built with gcc 9 (Ubuntu 9.4.0-1ubuntu1~20.04.1)\n",
      "  configuration: --prefix=/usr --extra-version=0ubuntu0.1 --toolchain=hardened --libdir=/usr/lib/x86_64-linux-gnu --incdir=/usr/include/x86_64-linux-gnu --arch=amd64 --enable-gpl --disable-stripping --enable-avresample --disable-filter=resample --enable-avisynth --enable-gnutls --enable-ladspa --enable-libaom --enable-libass --enable-libbluray --enable-libbs2b --enable-libcaca --enable-libcdio --enable-libcodec2 --enable-libflite --enable-libfontconfig --enable-libfreetype --enable-libfribidi --enable-libgme --enable-libgsm --enable-libjack --enable-libmp3lame --enable-libmysofa --enable-libopenjpeg --enable-libopenmpt --enable-libopus --enable-libpulse --enable-librsvg --enable-librubberband --enable-libshine --enable-libsnappy --enable-libsoxr --enable-libspeex --enable-libssh --enable-libtheora --enable-libtwolame --enable-libvidstab --enable-libvorbis --enable-libvpx --enable-libwavpack --enable-libwebp --enable-libx265 --enable-libxml2 --enable-libxvid --enable-libzmq --enable-libzvbi --enable-lv2 --enable-omx --enable-openal --enable-opencl --enable-opengl --enable-sdl2 --enable-libdc1394 --enable-libdrm --enable-libiec61883 --enable-nvenc --enable-chromaprint --enable-frei0r --enable-libx264 --enable-shared\n",
      "  libavutil      56. 31.100 / 56. 31.100\n",
      "  libavcodec     58. 54.100 / 58. 54.100\n",
      "  libavformat    58. 29.100 / 58. 29.100\n",
      "  libavdevice    58.  8.100 / 58.  8.100\n",
      "  libavfilter     7. 57.100 /  7. 57.100\n",
      "  libavresample   4.  0.  0 /  4.  0.  0\n",
      "  libswscale      5.  5.100 /  5.  5.100\n",
      "  libswresample   3.  5.100 /  3.  5.100\n",
      "  libpostproc    55.  5.100 / 55.  5.100\n",
      "Input #0, mov,mp4,m4a,3gp,3g2,mj2, from '/notebooks/conversation_data/ZT/1082_ZT_4_Aff_Video_Trim_left.mp4':\n",
      "  Metadata:\n",
      "    major_brand     : isom\n",
      "    minor_version   : 512\n",
      "    compatible_brands: isomiso2avc1mp41\n",
      "    encoder         : Lavf58.45.100\n",
      "    comment         : Create videos with https://clipchamp.com/en/video-editor - free online video editor, video compressor, video converter.\n",
      "  Duration: 00:09:05.86, start: 0.000000, bitrate: 312 kb/s\n",
      "    Stream #0:0(und): Video: h264 (High) (avc1 / 0x31637661), yuv420p, 960x1080, 179 kb/s, 20 fps, 20 tbr, 10240 tbn, 40 tbc (default)\n",
      "    Metadata:\n",
      "      handler_name    : VideoHandler\n",
      "    Stream #0:1(und): Audio: aac (LC) (mp4a / 0x6134706D), 48000 Hz, stereo, fltp, 127 kb/s (default)\n",
      "    Metadata:\n",
      "      handler_name    : SoundHandler\n",
      "Stream mapping:\n",
      "  Stream #0:1 -> #0:0 (aac (native) -> pcm_s16le (native))\n",
      "Press [q] to stop, [?] for help\n",
      "Output #0, wav, to '/notebooks/conversation_audios/1082_ZT_4_Aff_Video_Trim_left.wav':\n",
      "  Metadata:\n",
      "    major_brand     : isom\n",
      "    minor_version   : 512\n",
      "    compatible_brands: isomiso2avc1mp41\n",
      "    ICMT            : Create videos with https://clipchamp.com/en/video-editor - free online video editor, video compressor, video converter.\n",
      "    ISFT            : Lavf58.29.100\n",
      "    Stream #0:0(und): Audio: pcm_s16le ([1][0][0][0] / 0x0001), 16000 Hz, stereo, s16, 512 kb/s (default)\n",
      "    Metadata:\n",
      "      handler_name    : SoundHandler\n",
      "      encoder         : Lavc58.54.100 pcm_s16le\n",
      "size=   34115kB time=00:09:05.83 bitrate= 512.0kbits/s speed= 325x    \n",
      "video:0kB audio:34115kB subtitle:0kB other streams:0kB global headers:0kB muxing overhead: 0.000590%\n",
      "ffmpeg version 4.2.7-0ubuntu0.1 Copyright (c) 2000-2022 the FFmpeg developers\n",
      "  built with gcc 9 (Ubuntu 9.4.0-1ubuntu1~20.04.1)\n",
      "  configuration: --prefix=/usr --extra-version=0ubuntu0.1 --toolchain=hardened --libdir=/usr/lib/x86_64-linux-gnu --incdir=/usr/include/x86_64-linux-gnu --arch=amd64 --enable-gpl --disable-stripping --enable-avresample --disable-filter=resample --enable-avisynth --enable-gnutls --enable-ladspa --enable-libaom --enable-libass --enable-libbluray --enable-libbs2b --enable-libcaca --enable-libcdio --enable-libcodec2 --enable-libflite --enable-libfontconfig --enable-libfreetype --enable-libfribidi --enable-libgme --enable-libgsm --enable-libjack --enable-libmp3lame --enable-libmysofa --enable-libopenjpeg --enable-libopenmpt --enable-libopus --enable-libpulse --enable-librsvg --enable-librubberband --enable-libshine --enable-libsnappy --enable-libsoxr --enable-libspeex --enable-libssh --enable-libtheora --enable-libtwolame --enable-libvidstab --enable-libvorbis --enable-libvpx --enable-libwavpack --enable-libwebp --enable-libx265 --enable-libxml2 --enable-libxvid --enable-libzmq --enable-libzvbi --enable-lv2 --enable-omx --enable-openal --enable-opencl --enable-opengl --enable-sdl2 --enable-libdc1394 --enable-libdrm --enable-libiec61883 --enable-nvenc --enable-chromaprint --enable-frei0r --enable-libx264 --enable-shared\n",
      "  libavutil      56. 31.100 / 56. 31.100\n",
      "  libavcodec     58. 54.100 / 58. 54.100\n",
      "  libavformat    58. 29.100 / 58. 29.100\n",
      "  libavdevice    58.  8.100 / 58.  8.100\n",
      "  libavfilter     7. 57.100 /  7. 57.100\n",
      "  libavresample   4.  0.  0 /  4.  0.  0\n",
      "  libswscale      5.  5.100 /  5.  5.100\n",
      "  libswresample   3.  5.100 /  3.  5.100\n",
      "  libpostproc    55.  5.100 / 55.  5.100\n",
      "Input #0, mov,mp4,m4a,3gp,3g2,mj2, from '/notebooks/conversation_data/ZT/1082_ZT_4_Aff_Video_Trim_right.mp4':\n",
      "  Metadata:\n",
      "    major_brand     : isom\n",
      "    minor_version   : 512\n",
      "    compatible_brands: isomiso2avc1mp41\n",
      "    encoder         : Lavf58.45.100\n",
      "    comment         : Create videos with https://clipchamp.com/en/video-editor - free online video editor, video compressor, video converter.\n",
      "  Duration: 00:09:05.86, start: 0.000000, bitrate: 372 kb/s\n",
      "    Stream #0:0(und): Video: h264 (High) (avc1 / 0x31637661), yuv420p, 960x1080, 239 kb/s, 20 fps, 20 tbr, 10240 tbn, 40 tbc (default)\n",
      "    Metadata:\n",
      "      handler_name    : VideoHandler\n",
      "    Stream #0:1(und): Audio: aac (LC) (mp4a / 0x6134706D), 48000 Hz, stereo, fltp, 127 kb/s (default)\n",
      "    Metadata:\n",
      "      handler_name    : SoundHandler\n",
      "Stream mapping:\n",
      "  Stream #0:1 -> #0:0 (aac (native) -> pcm_s16le (native))\n",
      "Press [q] to stop, [?] for help\n",
      "Output #0, wav, to '/notebooks/conversation_audios/1082_ZT_4_Aff_Video_Trim_right.wav':\n",
      "  Metadata:\n",
      "    major_brand     : isom\n",
      "    minor_version   : 512\n",
      "    compatible_brands: isomiso2avc1mp41\n",
      "    ICMT            : Create videos with https://clipchamp.com/en/video-editor - free online video editor, video compressor, video converter.\n",
      "    ISFT            : Lavf58.29.100\n",
      "    Stream #0:0(und): Audio: pcm_s16le ([1][0][0][0] / 0x0001), 16000 Hz, stereo, s16, 512 kb/s (default)\n",
      "    Metadata:\n",
      "      handler_name    : SoundHandler\n",
      "      encoder         : Lavc58.54.100 pcm_s16le\n",
      "size=   34115kB time=00:09:05.83 bitrate= 512.0kbits/s speed= 425x    \n",
      "video:0kB audio:34115kB subtitle:0kB other streams:0kB global headers:0kB muxing overhead: 0.000590%\n",
      "ffmpeg version 4.2.7-0ubuntu0.1 Copyright (c) 2000-2022 the FFmpeg developers\n",
      "  built with gcc 9 (Ubuntu 9.4.0-1ubuntu1~20.04.1)\n",
      "  configuration: --prefix=/usr --extra-version=0ubuntu0.1 --toolchain=hardened --libdir=/usr/lib/x86_64-linux-gnu --incdir=/usr/include/x86_64-linux-gnu --arch=amd64 --enable-gpl --disable-stripping --enable-avresample --disable-filter=resample --enable-avisynth --enable-gnutls --enable-ladspa --enable-libaom --enable-libass --enable-libbluray --enable-libbs2b --enable-libcaca --enable-libcdio --enable-libcodec2 --enable-libflite --enable-libfontconfig --enable-libfreetype --enable-libfribidi --enable-libgme --enable-libgsm --enable-libjack --enable-libmp3lame --enable-libmysofa --enable-libopenjpeg --enable-libopenmpt --enable-libopus --enable-libpulse --enable-librsvg --enable-librubberband --enable-libshine --enable-libsnappy --enable-libsoxr --enable-libspeex --enable-libssh --enable-libtheora --enable-libtwolame --enable-libvidstab --enable-libvorbis --enable-libvpx --enable-libwavpack --enable-libwebp --enable-libx265 --enable-libxml2 --enable-libxvid --enable-libzmq --enable-libzvbi --enable-lv2 --enable-omx --enable-openal --enable-opencl --enable-opengl --enable-sdl2 --enable-libdc1394 --enable-libdrm --enable-libiec61883 --enable-nvenc --enable-chromaprint --enable-frei0r --enable-libx264 --enable-shared\n",
      "  libavutil      56. 31.100 / 56. 31.100\n",
      "  libavcodec     58. 54.100 / 58. 54.100\n",
      "  libavformat    58. 29.100 / 58. 29.100\n",
      "  libavdevice    58.  8.100 / 58.  8.100\n",
      "  libavfilter     7. 57.100 /  7. 57.100\n",
      "  libavresample   4.  0.  0 /  4.  0.  0\n",
      "  libswscale      5.  5.100 /  5.  5.100\n",
      "  libswresample   3.  5.100 /  3.  5.100\n",
      "  libpostproc    55.  5.100 / 55.  5.100\n",
      "Input #0, mov,mp4,m4a,3gp,3g2,mj2, from '/notebooks/conversation_data/ZT/1082_ZT_4_Arg_Video_Trim_left.mp4':\n",
      "  Metadata:\n",
      "    major_brand     : isom\n",
      "    minor_version   : 512\n",
      "    compatible_brands: isomiso2avc1mp41\n",
      "    encoder         : Lavf58.45.100\n",
      "    comment         : Create videos with https://clipchamp.com/en/video-editor - free online video editor, video compressor, video converter.\n",
      "  Duration: 00:10:25.13, start: 0.000000, bitrate: 257 kb/s\n",
      "    Stream #0:0(und): Video: h264 (High) (avc1 / 0x31637661), yuv420p, 960x1080, 125 kb/s, 20 fps, 20 tbr, 10240 tbn, 40 tbc (default)\n",
      "    Metadata:\n",
      "      handler_name    : VideoHandler\n",
      "    Stream #0:1(und): Audio: aac (LC) (mp4a / 0x6134706D), 44100 Hz, stereo, fltp, 127 kb/s (default)\n",
      "    Metadata:\n",
      "      handler_name    : SoundHandler\n",
      "Stream mapping:\n",
      "  Stream #0:1 -> #0:0 (aac (native) -> pcm_s16le (native))\n",
      "Press [q] to stop, [?] for help\n",
      "Output #0, wav, to '/notebooks/conversation_audios/1082_ZT_4_Arg_Video_Trim_left.wav':\n",
      "  Metadata:\n",
      "    major_brand     : isom\n",
      "    minor_version   : 512\n",
      "    compatible_brands: isomiso2avc1mp41\n",
      "    ICMT            : Create videos with https://clipchamp.com/en/video-editor - free online video editor, video compressor, video converter.\n",
      "    ISFT            : Lavf58.29.100\n",
      "    Stream #0:0(und): Audio: pcm_s16le ([1][0][0][0] / 0x0001), 16000 Hz, stereo, s16, 512 kb/s (default)\n",
      "    Metadata:\n",
      "      handler_name    : SoundHandler\n",
      "      encoder         : Lavc58.54.100 pcm_s16le\n",
      "size=   39069kB time=00:10:25.10 bitrate= 512.0kbits/s speed= 361x    \n",
      "video:0kB audio:39069kB subtitle:0kB other streams:0kB global headers:0kB muxing overhead: 0.000515%\n",
      "ffmpeg version 4.2.7-0ubuntu0.1 Copyright (c) 2000-2022 the FFmpeg developers\n",
      "  built with gcc 9 (Ubuntu 9.4.0-1ubuntu1~20.04.1)\n",
      "  configuration: --prefix=/usr --extra-version=0ubuntu0.1 --toolchain=hardened --libdir=/usr/lib/x86_64-linux-gnu --incdir=/usr/include/x86_64-linux-gnu --arch=amd64 --enable-gpl --disable-stripping --enable-avresample --disable-filter=resample --enable-avisynth --enable-gnutls --enable-ladspa --enable-libaom --enable-libass --enable-libbluray --enable-libbs2b --enable-libcaca --enable-libcdio --enable-libcodec2 --enable-libflite --enable-libfontconfig --enable-libfreetype --enable-libfribidi --enable-libgme --enable-libgsm --enable-libjack --enable-libmp3lame --enable-libmysofa --enable-libopenjpeg --enable-libopenmpt --enable-libopus --enable-libpulse --enable-librsvg --enable-librubberband --enable-libshine --enable-libsnappy --enable-libsoxr --enable-libspeex --enable-libssh --enable-libtheora --enable-libtwolame --enable-libvidstab --enable-libvorbis --enable-libvpx --enable-libwavpack --enable-libwebp --enable-libx265 --enable-libxml2 --enable-libxvid --enable-libzmq --enable-libzvbi --enable-lv2 --enable-omx --enable-openal --enable-opencl --enable-opengl --enable-sdl2 --enable-libdc1394 --enable-libdrm --enable-libiec61883 --enable-nvenc --enable-chromaprint --enable-frei0r --enable-libx264 --enable-shared\n",
      "  libavutil      56. 31.100 / 56. 31.100\n",
      "  libavcodec     58. 54.100 / 58. 54.100\n",
      "  libavformat    58. 29.100 / 58. 29.100\n",
      "  libavdevice    58.  8.100 / 58.  8.100\n",
      "  libavfilter     7. 57.100 /  7. 57.100\n",
      "  libavresample   4.  0.  0 /  4.  0.  0\n",
      "  libswscale      5.  5.100 /  5.  5.100\n",
      "  libswresample   3.  5.100 /  3.  5.100\n",
      "  libpostproc    55.  5.100 / 55.  5.100\n",
      "Input #0, mov,mp4,m4a,3gp,3g2,mj2, from '/notebooks/conversation_data/ZT/1082_ZT_4_Arg_Video_Trim_right.mp4':\n",
      "  Metadata:\n",
      "    major_brand     : isom\n",
      "    minor_version   : 512\n",
      "    compatible_brands: isomiso2avc1mp41\n",
      "    encoder         : Lavf58.45.100\n",
      "    comment         : Create videos with https://clipchamp.com/en/video-editor - free online video editor, video compressor, video converter.\n",
      "  Duration: 00:10:25.13, start: 0.000000, bitrate: 383 kb/s\n",
      "    Stream #0:0(und): Video: h264 (High) (avc1 / 0x31637661), yuv420p, 960x1080, 251 kb/s, 20 fps, 20 tbr, 10240 tbn, 40 tbc (default)\n",
      "    Metadata:\n",
      "      handler_name    : VideoHandler\n",
      "    Stream #0:1(und): Audio: aac (LC) (mp4a / 0x6134706D), 44100 Hz, stereo, fltp, 127 kb/s (default)\n",
      "    Metadata:\n",
      "      handler_name    : SoundHandler\n",
      "Stream mapping:\n",
      "  Stream #0:1 -> #0:0 (aac (native) -> pcm_s16le (native))\n",
      "Press [q] to stop, [?] for help\n",
      "Output #0, wav, to '/notebooks/conversation_audios/1082_ZT_4_Arg_Video_Trim_right.wav':\n",
      "  Metadata:\n",
      "    major_brand     : isom\n",
      "    minor_version   : 512\n",
      "    compatible_brands: isomiso2avc1mp41\n",
      "    ICMT            : Create videos with https://clipchamp.com/en/video-editor - free online video editor, video compressor, video converter.\n",
      "    ISFT            : Lavf58.29.100\n",
      "    Stream #0:0(und): Audio: pcm_s16le ([1][0][0][0] / 0x0001), 16000 Hz, stereo, s16, 512 kb/s (default)\n",
      "    Metadata:\n",
      "      handler_name    : SoundHandler\n",
      "      encoder         : Lavc58.54.100 pcm_s16le\n",
      "size=   39069kB time=00:10:25.10 bitrate= 512.0kbits/s speed= 350x    \n",
      "video:0kB audio:39069kB subtitle:0kB other streams:0kB global headers:0kB muxing overhead: 0.000515%\n",
      "ffmpeg version 4.2.7-0ubuntu0.1 Copyright (c) 2000-2022 the FFmpeg developers\n",
      "  built with gcc 9 (Ubuntu 9.4.0-1ubuntu1~20.04.1)\n",
      "  configuration: --prefix=/usr --extra-version=0ubuntu0.1 --toolchain=hardened --libdir=/usr/lib/x86_64-linux-gnu --incdir=/usr/include/x86_64-linux-gnu --arch=amd64 --enable-gpl --disable-stripping --enable-avresample --disable-filter=resample --enable-avisynth --enable-gnutls --enable-ladspa --enable-libaom --enable-libass --enable-libbluray --enable-libbs2b --enable-libcaca --enable-libcdio --enable-libcodec2 --enable-libflite --enable-libfontconfig --enable-libfreetype --enable-libfribidi --enable-libgme --enable-libgsm --enable-libjack --enable-libmp3lame --enable-libmysofa --enable-libopenjpeg --enable-libopenmpt --enable-libopus --enable-libpulse --enable-librsvg --enable-librubberband --enable-libshine --enable-libsnappy --enable-libsoxr --enable-libspeex --enable-libssh --enable-libtheora --enable-libtwolame --enable-libvidstab --enable-libvorbis --enable-libvpx --enable-libwavpack --enable-libwebp --enable-libx265 --enable-libxml2 --enable-libxvid --enable-libzmq --enable-libzvbi --enable-lv2 --enable-omx --enable-openal --enable-opencl --enable-opengl --enable-sdl2 --enable-libdc1394 --enable-libdrm --enable-libiec61883 --enable-nvenc --enable-chromaprint --enable-frei0r --enable-libx264 --enable-shared\n",
      "  libavutil      56. 31.100 / 56. 31.100\n",
      "  libavcodec     58. 54.100 / 58. 54.100\n",
      "  libavformat    58. 29.100 / 58. 29.100\n",
      "  libavdevice    58.  8.100 / 58.  8.100\n",
      "  libavfilter     7. 57.100 /  7. 57.100\n",
      "  libavresample   4.  0.  0 /  4.  0.  0\n",
      "  libswscale      5.  5.100 /  5.  5.100\n",
      "  libswresample   3.  5.100 /  3.  5.100\n",
      "  libpostproc    55.  5.100 / 55.  5.100\n",
      "Input #0, mov,mp4,m4a,3gp,3g2,mj2, from '/notebooks/conversation_data/ZT/1082_ZT_4_Coop_Video_Trim_left.mp4':\n",
      "  Metadata:\n",
      "    major_brand     : isom\n",
      "    minor_version   : 512\n",
      "    compatible_brands: isomiso2avc1mp41\n",
      "    encoder         : Lavf58.45.100\n",
      "    comment         : Create videos with https://clipchamp.com/en/video-editor - free online video editor, video compressor, video converter.\n",
      "  Duration: 00:08:19.97, start: 0.000000, bitrate: 250 kb/s\n",
      "    Stream #0:0(und): Video: h264 (High) (avc1 / 0x31637661), yuv420p, 960x1080, 124 kb/s, 20 fps, 20 tbr, 10240 tbn, 40 tbc (default)\n",
      "    Metadata:\n",
      "      handler_name    : VideoHandler\n",
      "    Stream #0:1(und): Audio: aac (LC) (mp4a / 0x6134706D), 44100 Hz, stereo, fltp, 120 kb/s (default)\n",
      "    Metadata:\n",
      "      handler_name    : SoundHandler\n",
      "Stream mapping:\n",
      "  Stream #0:1 -> #0:0 (aac (native) -> pcm_s16le (native))\n",
      "Press [q] to stop, [?] for help\n",
      "Output #0, wav, to '/notebooks/conversation_audios/1082_ZT_4_Coop_Video_Trim_left.wav':\n",
      "  Metadata:\n",
      "    major_brand     : isom\n",
      "    minor_version   : 512\n",
      "    compatible_brands: isomiso2avc1mp41\n",
      "    ICMT            : Create videos with https://clipchamp.com/en/video-editor - free online video editor, video compressor, video converter.\n",
      "    ISFT            : Lavf58.29.100\n",
      "    Stream #0:0(und): Audio: pcm_s16le ([1][0][0][0] / 0x0001), 16000 Hz, stereo, s16, 512 kb/s (default)\n",
      "    Metadata:\n",
      "      handler_name    : SoundHandler\n",
      "      encoder         : Lavc58.54.100 pcm_s16le\n",
      "size=   31247kB time=00:08:19.94 bitrate= 512.0kbits/s speed= 461x    \n",
      "video:0kB audio:31247kB subtitle:0kB other streams:0kB global headers:0kB muxing overhead: 0.000644%\n",
      "ffmpeg version 4.2.7-0ubuntu0.1 Copyright (c) 2000-2022 the FFmpeg developers\n",
      "  built with gcc 9 (Ubuntu 9.4.0-1ubuntu1~20.04.1)\n",
      "  configuration: --prefix=/usr --extra-version=0ubuntu0.1 --toolchain=hardened --libdir=/usr/lib/x86_64-linux-gnu --incdir=/usr/include/x86_64-linux-gnu --arch=amd64 --enable-gpl --disable-stripping --enable-avresample --disable-filter=resample --enable-avisynth --enable-gnutls --enable-ladspa --enable-libaom --enable-libass --enable-libbluray --enable-libbs2b --enable-libcaca --enable-libcdio --enable-libcodec2 --enable-libflite --enable-libfontconfig --enable-libfreetype --enable-libfribidi --enable-libgme --enable-libgsm --enable-libjack --enable-libmp3lame --enable-libmysofa --enable-libopenjpeg --enable-libopenmpt --enable-libopus --enable-libpulse --enable-librsvg --enable-librubberband --enable-libshine --enable-libsnappy --enable-libsoxr --enable-libspeex --enable-libssh --enable-libtheora --enable-libtwolame --enable-libvidstab --enable-libvorbis --enable-libvpx --enable-libwavpack --enable-libwebp --enable-libx265 --enable-libxml2 --enable-libxvid --enable-libzmq --enable-libzvbi --enable-lv2 --enable-omx --enable-openal --enable-opencl --enable-opengl --enable-sdl2 --enable-libdc1394 --enable-libdrm --enable-libiec61883 --enable-nvenc --enable-chromaprint --enable-frei0r --enable-libx264 --enable-shared\n",
      "  libavutil      56. 31.100 / 56. 31.100\n",
      "  libavcodec     58. 54.100 / 58. 54.100\n",
      "  libavformat    58. 29.100 / 58. 29.100\n",
      "  libavdevice    58.  8.100 / 58.  8.100\n",
      "  libavfilter     7. 57.100 /  7. 57.100\n",
      "  libavresample   4.  0.  0 /  4.  0.  0\n",
      "  libswscale      5.  5.100 /  5.  5.100\n",
      "  libswresample   3.  5.100 /  3.  5.100\n",
      "  libpostproc    55.  5.100 / 55.  5.100\n",
      "Input #0, mov,mp4,m4a,3gp,3g2,mj2, from '/notebooks/conversation_data/ZT/1082_ZT_4_Coop_Video_Trim_right.mp4':\n",
      "  Metadata:\n",
      "    major_brand     : isom\n",
      "    minor_version   : 512\n",
      "    compatible_brands: isomiso2avc1mp41\n",
      "    encoder         : Lavf58.45.100\n",
      "    comment         : Create videos with https://clipchamp.com/en/video-editor - free online video editor, video compressor, video converter.\n",
      "  Duration: 00:08:19.97, start: 0.000000, bitrate: 448 kb/s\n",
      "    Stream #0:0(und): Video: h264 (High) (avc1 / 0x31637661), yuv420p, 960x1080, 322 kb/s, 20 fps, 20 tbr, 10240 tbn, 40 tbc (default)\n",
      "    Metadata:\n",
      "      handler_name    : VideoHandler\n",
      "    Stream #0:1(und): Audio: aac (LC) (mp4a / 0x6134706D), 44100 Hz, stereo, fltp, 120 kb/s (default)\n",
      "    Metadata:\n",
      "      handler_name    : SoundHandler\n",
      "Stream mapping:\n",
      "  Stream #0:1 -> #0:0 (aac (native) -> pcm_s16le (native))\n",
      "Press [q] to stop, [?] for help\n",
      "Output #0, wav, to '/notebooks/conversation_audios/1082_ZT_4_Coop_Video_Trim_right.wav':\n",
      "  Metadata:\n",
      "    major_brand     : isom\n",
      "    minor_version   : 512\n",
      "    compatible_brands: isomiso2avc1mp41\n",
      "    ICMT            : Create videos with https://clipchamp.com/en/video-editor - free online video editor, video compressor, video converter.\n",
      "    ISFT            : Lavf58.29.100\n",
      "    Stream #0:0(und): Audio: pcm_s16le ([1][0][0][0] / 0x0001), 16000 Hz, stereo, s16, 512 kb/s (default)\n",
      "    Metadata:\n",
      "      handler_name    : SoundHandler\n",
      "      encoder         : Lavc58.54.100 pcm_s16le\n",
      "size=   31247kB time=00:08:19.94 bitrate= 512.0kbits/s speed= 430x    \n",
      "video:0kB audio:31247kB subtitle:0kB other streams:0kB global headers:0kB muxing overhead: 0.000644%\n"
     ]
    }
   ],
   "source": [
    "input_videos = sorted([x for x in os.listdir(INPUT_VIDEOS) if not x.startswith(\".\")])\n",
    "input_videos = [i.split('.')[0] for i in input_videos] \n",
    "\n",
    "for file in input_videos:\n",
    "    !echo y | ffmpeg -i \"$INPUT_VIDEOS\"/\"$file\".mp4 -acodec pcm_s16le -ar 16000 -ac 2 \"$OUTPUT_AUDIOS\"/\"$file\".wav"
   ]
  },
  {
   "cell_type": "markdown",
   "id": "64df0728-76a1-46f2-94de-d298e01cfdf2",
   "metadata": {},
   "source": [
    "## Step 1: Install OpenSMILE"
   ]
  },
  {
   "cell_type": "code",
   "execution_count": 14,
   "id": "0f164ca8-6ca5-4f40-8053-0e13aa1d1c59",
   "metadata": {
    "execution": {
     "iopub.execute_input": "2023-07-19T21:49:15.846233Z",
     "iopub.status.busy": "2023-07-19T21:49:15.845905Z",
     "iopub.status.idle": "2023-07-19T21:49:20.443141Z",
     "shell.execute_reply": "2023-07-19T21:49:20.438614Z",
     "shell.execute_reply.started": "2023-07-19T21:49:15.846195Z"
    }
   },
   "outputs": [
    {
     "name": "stdout",
     "output_type": "stream",
     "text": [
      "Requirement already satisfied: opensmile in /usr/local/lib/python3.9/dist-packages (2.4.2)\n",
      "Requirement already satisfied: audinterface>=0.7.0 in /usr/local/lib/python3.9/dist-packages (from opensmile) (1.0.4)\n",
      "Requirement already satisfied: audobject>=0.6.1 in /usr/local/lib/python3.9/dist-packages (from opensmile) (0.7.9)\n",
      "Requirement already satisfied: audformat<2.0.0,>=1.0.1 in /usr/local/lib/python3.9/dist-packages (from audinterface>=0.7.0->opensmile) (1.0.1)\n",
      "Requirement already satisfied: audmath>=1.3.0 in /usr/local/lib/python3.9/dist-packages (from audinterface>=0.7.0->opensmile) (1.3.0)\n",
      "Requirement already satisfied: audiofile>=1.3.0 in /usr/local/lib/python3.9/dist-packages (from audinterface>=0.7.0->opensmile) (1.3.0)\n",
      "Requirement already satisfied: audresample<2.0.0,>=1.1.0 in /usr/local/lib/python3.9/dist-packages (from audinterface>=0.7.0->opensmile) (1.3.2)\n",
      "Requirement already satisfied: audeer>=1.18.0 in /usr/local/lib/python3.9/dist-packages (from audobject>=0.6.1->opensmile) (1.20.1)\n",
      "Requirement already satisfied: oyaml in /usr/local/lib/python3.9/dist-packages (from audobject>=0.6.1->opensmile) (1.0)\n",
      "Requirement already satisfied: importlib-metadata>=4.8.0 in /usr/local/lib/python3.9/dist-packages (from audobject>=0.6.1->opensmile) (6.0.0)\n",
      "Requirement already satisfied: tqdm in /usr/local/lib/python3.9/dist-packages (from audeer>=1.18.0->audobject>=0.6.1->opensmile) (4.64.1)\n",
      "Requirement already satisfied: pandas>=1.4.1 in /usr/local/lib/python3.9/dist-packages (from audformat<2.0.0,>=1.0.1->audinterface>=0.7.0->opensmile) (1.5.0)\n",
      "Requirement already satisfied: pyyaml>=5.4.1 in /usr/local/lib/python3.9/dist-packages (from audformat<2.0.0,>=1.0.1->audinterface>=0.7.0->opensmile) (5.4.1)\n",
      "Requirement already satisfied: iso3166 in /usr/local/lib/python3.9/dist-packages (from audformat<2.0.0,>=1.0.1->audinterface>=0.7.0->opensmile) (2.1.1)\n",
      "Requirement already satisfied: iso-639 in /usr/local/lib/python3.9/dist-packages (from audformat<2.0.0,>=1.0.1->audinterface>=0.7.0->opensmile) (0.4.5)\n",
      "Requirement already satisfied: soundfile in /usr/local/lib/python3.9/dist-packages (from audiofile>=1.3.0->audinterface>=0.7.0->opensmile) (0.12.1)\n",
      "Requirement already satisfied: numpy in /usr/local/lib/python3.9/dist-packages (from audiofile>=1.3.0->audinterface>=0.7.0->opensmile) (1.25.1)\n",
      "Requirement already satisfied: zipp>=0.5 in /usr/local/lib/python3.9/dist-packages (from importlib-metadata>=4.8.0->audobject>=0.6.1->opensmile) (3.11.0)\n",
      "Requirement already satisfied: pytz>=2020.1 in /usr/local/lib/python3.9/dist-packages (from pandas>=1.4.1->audformat<2.0.0,>=1.0.1->audinterface>=0.7.0->opensmile) (2022.7.1)\n",
      "Requirement already satisfied: python-dateutil>=2.8.1 in /usr/local/lib/python3.9/dist-packages (from pandas>=1.4.1->audformat<2.0.0,>=1.0.1->audinterface>=0.7.0->opensmile) (2.8.2)\n",
      "Requirement already satisfied: cffi>=1.0 in /usr/local/lib/python3.9/dist-packages (from soundfile->audiofile>=1.3.0->audinterface>=0.7.0->opensmile) (1.15.1)\n",
      "Requirement already satisfied: pycparser in /usr/local/lib/python3.9/dist-packages (from cffi>=1.0->soundfile->audiofile>=1.3.0->audinterface>=0.7.0->opensmile) (2.21)\n",
      "Requirement already satisfied: six>=1.5 in /usr/lib/python3/dist-packages (from python-dateutil>=2.8.1->pandas>=1.4.1->audformat<2.0.0,>=1.0.1->audinterface>=0.7.0->opensmile) (1.14.0)\n",
      "\u001b[33mWARNING: Running pip as the 'root' user can result in broken permissions and conflicting behaviour with the system package manager. It is recommended to use a virtual environment instead: https://pip.pypa.io/warnings/venv\u001b[0m\u001b[33m\n",
      "\u001b[0m"
     ]
    }
   ],
   "source": [
    "#installing opensmile\n",
    "!pip install opensmile"
   ]
  },
  {
   "cell_type": "markdown",
   "id": "ec20cc9a-5aa9-4652-af4a-ed3b67e21d8d",
   "metadata": {},
   "source": [
    "## Step 2: run OpenSMILE on your audio file\n",
    "\n",
    "**Note** Converted audio files involve multiple speakers and many conversation turns. If you are interested in getting audio features \n",
    "from each turns of each speakers and compare them, you will need to:\n",
    "1. Manually annotate speaker change and create separate audio (.wav) files for each.\n",
    "2. Alternately, you can use speaker diariazation models such as [Pyannote](https://huggingface.co/pyannote/speaker-segmentation). Sperker diarization and segmenttaion is a very imperefect technology, so please use with caution."
   ]
  },
  {
   "cell_type": "markdown",
   "id": "96c83593-387e-48c4-b2ac-0dc271bb6477",
   "metadata": {},
   "source": [
    "### Specify paramaters\n",
    "\n",
    "1. OpenSMILE offers several feature sets, we use ComParE_2016 developed for compulational paralinguistics. You can see others [here](https://audeering.github.io/opensmile-python/api/opensmile.FeatureSet.html#opensmile.FeatureSet).\n",
    "2. OpenSMILE offers 3 types of feature. we use low-level descriptors developed for basic usage. You can see others [here](https://audeering.github.io/opensmile-python/api/opensmile.FeatureLevel.html)"
   ]
  },
  {
   "cell_type": "code",
   "execution_count": 16,
   "id": "404b50d1-a06d-470a-8f1d-00585d210250",
   "metadata": {
    "execution": {
     "iopub.execute_input": "2023-07-19T21:49:24.204971Z",
     "iopub.status.busy": "2023-07-19T21:49:24.203814Z",
     "iopub.status.idle": "2023-07-19T21:49:24.210294Z",
     "shell.execute_reply": "2023-07-19T21:49:24.209228Z",
     "shell.execute_reply.started": "2023-07-19T21:49:24.204904Z"
    }
   },
   "outputs": [],
   "source": [
    "#import opensmile\n",
    "import opensmile\n",
    "\n",
    "#set feature name and type\n",
    "feature_set_name = opensmile.FeatureSet.ComParE_2016\n",
    "\n",
    "feature_level_name=opensmile.FeatureLevel.LowLevelDescriptors\n",
    "\n",
    "#define csv file name\n",
    "csv_name = 'opensmile_lowlevelFeatures.csv'\n",
    "\n",
    "# we want to save file names to keep track of what file has been analyszed\n",
    "file_names_columns = ['File_name']"
   ]
  },
  {
   "cell_type": "markdown",
   "id": "2b30719b-eb3e-4e06-a315-18842b343937",
   "metadata": {},
   "source": [
    "## Run OpenSMILE on each file and save results"
   ]
  },
  {
   "cell_type": "code",
   "execution_count": 17,
   "id": "33f8ddf1-3dcf-49f7-9a78-9194e8ddd26d",
   "metadata": {
    "execution": {
     "iopub.execute_input": "2023-07-19T21:49:25.714721Z",
     "iopub.status.busy": "2023-07-19T21:49:25.713891Z",
     "iopub.status.idle": "2023-07-19T21:53:09.878049Z",
     "shell.execute_reply": "2023-07-19T21:53:09.877022Z",
     "shell.execute_reply.started": "2023-07-19T21:49:25.714689Z"
    }
   },
   "outputs": [
    {
     "name": "stdout",
     "output_type": "stream",
     "text": [
      "data written for  1058_ZT_4_Aff_Video_left.wav\n",
      "data written for  1058_ZT_4_Aff_Video_right.wav\n",
      "data written for  1082_ZT_4_Aff_Video_Trim_left.wav\n",
      "data written for  1082_ZT_4_Aff_Video_Trim_right.wav\n",
      "data written for  1082_ZT_4_Arg_Video_Trim_left.wav\n",
      "data written for  1082_ZT_4_Arg_Video_Trim_right.wav\n",
      "data written for  1082_ZT_4_Coop_Video_Trim_left.wav\n",
      "data written for  1082_ZT_4_Coop_Video_Trim_right.wav\n",
      "data written for  1101_ZR_1_Aff_Video_left.wav\n",
      "data written for  1101_ZR_1_Aff_Video_right.wav\n",
      "data written for  1101_ZR_1_Arg_Video_left.wav\n",
      "data written for  1101_ZR_1_Arg_Video_right.wav\n",
      "data written for  1101_ZR_1_Coop_Video_left.wav\n",
      "data written for  1101_ZR_1_Coop_Video_right.wav\n"
     ]
    }
   ],
   "source": [
    "#define smile \n",
    "smile = opensmile.Smile(\n",
    "        feature_set=feature_set_name,\n",
    "        feature_level=feature_level_name\n",
    ")\n",
    "\n",
    "#feature column names for csv file\n",
    "feature_names = smile.feature_names\n",
    "\n",
    "\n",
    "# complete final column names\n",
    "with open(OUTPUT_CSVS + '/' + csv_name, 'w', newline = '') as f:\n",
    "    writer = csv.writer(f)\n",
    "    writer.writerow(feature_names)\n",
    "    \n",
    "    wav_files = sorted([x for x in os.listdir(OUTPUT_AUDIOS) if not x.startswith(\".\")]) \n",
    "    \n",
    "    for file in wav_files:\n",
    "        \n",
    "        file_id = [str(file)]\n",
    "        feature = smile.process_file(OUTPUT_AUDIOS + '/' + file)\n",
    "        \n",
    "        #storing the statistical values of the features, we store mean here\n",
    "        mean_feature = np.mean(feature, axis = 0).tolist()\n",
    "        \n",
    "        #file and feature\n",
    "        id_and_feature = file_id + mean_feature\n",
    "        \n",
    "        writer.writerow(id_and_feature)\n",
    "        print('data written for ', file)\n",
    "        "
   ]
  },
  {
   "cell_type": "markdown",
   "id": "301edf5b-ad32-4b75-b36b-ed24e256e990",
   "metadata": {},
   "source": [
    "### Congratulations! You should have your audio features for each .wav file stored in a single csv in `opensmile_csv` folder.\n",
    "You can also see it below."
   ]
  },
  {
   "cell_type": "code",
   "execution_count": 5,
   "id": "eca84902-a340-4261-8457-09d89cfb2998",
   "metadata": {
    "execution": {
     "iopub.execute_input": "2023-07-19T16:14:32.726993Z",
     "iopub.status.busy": "2023-07-19T16:14:32.726619Z",
     "iopub.status.idle": "2023-07-19T16:14:32.766716Z",
     "shell.execute_reply": "2023-07-19T16:14:32.765616Z",
     "shell.execute_reply.started": "2023-07-19T16:14:32.726949Z"
    }
   },
   "outputs": [
    {
     "data": {
      "text/html": [
       "<div>\n",
       "<style scoped>\n",
       "    .dataframe tbody tr th:only-of-type {\n",
       "        vertical-align: middle;\n",
       "    }\n",
       "\n",
       "    .dataframe tbody tr th {\n",
       "        vertical-align: top;\n",
       "    }\n",
       "\n",
       "    .dataframe thead th {\n",
       "        text-align: right;\n",
       "    }\n",
       "</style>\n",
       "<table border=\"1\" class=\"dataframe\">\n",
       "  <thead>\n",
       "    <tr style=\"text-align: right;\">\n",
       "      <th></th>\n",
       "      <th>F0final_sma</th>\n",
       "      <th>voicingFinalUnclipped_sma</th>\n",
       "      <th>jitterLocal_sma</th>\n",
       "      <th>jitterDDP_sma</th>\n",
       "      <th>shimmerLocal_sma</th>\n",
       "      <th>logHNR_sma</th>\n",
       "      <th>audspec_lengthL1norm_sma</th>\n",
       "      <th>audspecRasta_lengthL1norm_sma</th>\n",
       "      <th>pcm_RMSenergy_sma</th>\n",
       "      <th>pcm_zcr_sma</th>\n",
       "      <th>...</th>\n",
       "      <th>mfcc_sma[5]</th>\n",
       "      <th>mfcc_sma[6]</th>\n",
       "      <th>mfcc_sma[7]</th>\n",
       "      <th>mfcc_sma[8]</th>\n",
       "      <th>mfcc_sma[9]</th>\n",
       "      <th>mfcc_sma[10]</th>\n",
       "      <th>mfcc_sma[11]</th>\n",
       "      <th>mfcc_sma[12]</th>\n",
       "      <th>mfcc_sma[13]</th>\n",
       "      <th>mfcc_sma[14]</th>\n",
       "    </tr>\n",
       "  </thead>\n",
       "  <tbody>\n",
       "    <tr>\n",
       "      <th>1101_ZR_1_Aff_Video_left.wav</th>\n",
       "      <td>67.573875</td>\n",
       "      <td>0.516951</td>\n",
       "      <td>0.012903</td>\n",
       "      <td>0.010247</td>\n",
       "      <td>0.080977</td>\n",
       "      <td>-50.087257</td>\n",
       "      <td>0.294172</td>\n",
       "      <td>1.873871</td>\n",
       "      <td>0.024732</td>\n",
       "      <td>0.104864</td>\n",
       "      <td>...</td>\n",
       "      <td>-14.224147</td>\n",
       "      <td>-18.252089</td>\n",
       "      <td>-8.890177</td>\n",
       "      <td>-1.768037</td>\n",
       "      <td>3.363763</td>\n",
       "      <td>1.097402</td>\n",
       "      <td>-2.860701</td>\n",
       "      <td>-2.299195</td>\n",
       "      <td>-1.433254</td>\n",
       "      <td>-4.291696</td>\n",
       "    </tr>\n",
       "    <tr>\n",
       "      <th>1101_ZR_1_Aff_Video_right.wav</th>\n",
       "      <td>67.573875</td>\n",
       "      <td>0.516951</td>\n",
       "      <td>0.012903</td>\n",
       "      <td>0.010247</td>\n",
       "      <td>0.080977</td>\n",
       "      <td>-50.087257</td>\n",
       "      <td>0.294172</td>\n",
       "      <td>1.873871</td>\n",
       "      <td>0.024732</td>\n",
       "      <td>0.104864</td>\n",
       "      <td>...</td>\n",
       "      <td>-14.224147</td>\n",
       "      <td>-18.252089</td>\n",
       "      <td>-8.890177</td>\n",
       "      <td>-1.768037</td>\n",
       "      <td>3.363763</td>\n",
       "      <td>1.097402</td>\n",
       "      <td>-2.860701</td>\n",
       "      <td>-2.299195</td>\n",
       "      <td>-1.433254</td>\n",
       "      <td>-4.291696</td>\n",
       "    </tr>\n",
       "    <tr>\n",
       "      <th>1101_ZR_1_Arg_Video_left.wav</th>\n",
       "      <td>62.695660</td>\n",
       "      <td>0.491056</td>\n",
       "      <td>0.012314</td>\n",
       "      <td>0.009728</td>\n",
       "      <td>0.075418</td>\n",
       "      <td>-53.347172</td>\n",
       "      <td>0.294623</td>\n",
       "      <td>1.841782</td>\n",
       "      <td>0.025335</td>\n",
       "      <td>0.107453</td>\n",
       "      <td>...</td>\n",
       "      <td>-14.447663</td>\n",
       "      <td>-17.851768</td>\n",
       "      <td>-7.809336</td>\n",
       "      <td>-2.176062</td>\n",
       "      <td>2.851089</td>\n",
       "      <td>1.735189</td>\n",
       "      <td>-2.054115</td>\n",
       "      <td>-2.273605</td>\n",
       "      <td>-1.692027</td>\n",
       "      <td>-3.767252</td>\n",
       "    </tr>\n",
       "    <tr>\n",
       "      <th>1101_ZR_1_Arg_Video_right.wav</th>\n",
       "      <td>62.695660</td>\n",
       "      <td>0.491056</td>\n",
       "      <td>0.012314</td>\n",
       "      <td>0.009728</td>\n",
       "      <td>0.075418</td>\n",
       "      <td>-53.347172</td>\n",
       "      <td>0.294623</td>\n",
       "      <td>1.841782</td>\n",
       "      <td>0.025335</td>\n",
       "      <td>0.107453</td>\n",
       "      <td>...</td>\n",
       "      <td>-14.447663</td>\n",
       "      <td>-17.851768</td>\n",
       "      <td>-7.809336</td>\n",
       "      <td>-2.176062</td>\n",
       "      <td>2.851089</td>\n",
       "      <td>1.735189</td>\n",
       "      <td>-2.054115</td>\n",
       "      <td>-2.273605</td>\n",
       "      <td>-1.692027</td>\n",
       "      <td>-3.767252</td>\n",
       "    </tr>\n",
       "    <tr>\n",
       "      <th>1101_ZR_1_Coop_Video_left.wav</th>\n",
       "      <td>43.808903</td>\n",
       "      <td>0.376040</td>\n",
       "      <td>0.009803</td>\n",
       "      <td>0.008043</td>\n",
       "      <td>0.057201</td>\n",
       "      <td>-65.081177</td>\n",
       "      <td>0.196341</td>\n",
       "      <td>1.728786</td>\n",
       "      <td>0.016421</td>\n",
       "      <td>0.091056</td>\n",
       "      <td>...</td>\n",
       "      <td>-8.565414</td>\n",
       "      <td>-11.341309</td>\n",
       "      <td>-5.938381</td>\n",
       "      <td>-1.141728</td>\n",
       "      <td>4.210069</td>\n",
       "      <td>-0.078988</td>\n",
       "      <td>-0.038832</td>\n",
       "      <td>-2.210269</td>\n",
       "      <td>-0.278161</td>\n",
       "      <td>-1.972976</td>\n",
       "    </tr>\n",
       "    <tr>\n",
       "      <th>1101_ZR_1_Coop_Video_right.wav</th>\n",
       "      <td>43.808903</td>\n",
       "      <td>0.376040</td>\n",
       "      <td>0.009803</td>\n",
       "      <td>0.008043</td>\n",
       "      <td>0.057201</td>\n",
       "      <td>-65.081177</td>\n",
       "      <td>0.196341</td>\n",
       "      <td>1.728786</td>\n",
       "      <td>0.016421</td>\n",
       "      <td>0.091056</td>\n",
       "      <td>...</td>\n",
       "      <td>-8.565414</td>\n",
       "      <td>-11.341309</td>\n",
       "      <td>-5.938381</td>\n",
       "      <td>-1.141728</td>\n",
       "      <td>4.210069</td>\n",
       "      <td>-0.078988</td>\n",
       "      <td>-0.038832</td>\n",
       "      <td>-2.210269</td>\n",
       "      <td>-0.278161</td>\n",
       "      <td>-1.972976</td>\n",
       "    </tr>\n",
       "  </tbody>\n",
       "</table>\n",
       "<p>6 rows  65 columns</p>\n",
       "</div>"
      ],
      "text/plain": [
       "                                F0final_sma  voicingFinalUnclipped_sma  \\\n",
       "1101_ZR_1_Aff_Video_left.wav      67.573875                   0.516951   \n",
       "1101_ZR_1_Aff_Video_right.wav     67.573875                   0.516951   \n",
       "1101_ZR_1_Arg_Video_left.wav      62.695660                   0.491056   \n",
       "1101_ZR_1_Arg_Video_right.wav     62.695660                   0.491056   \n",
       "1101_ZR_1_Coop_Video_left.wav     43.808903                   0.376040   \n",
       "1101_ZR_1_Coop_Video_right.wav    43.808903                   0.376040   \n",
       "\n",
       "                                jitterLocal_sma  jitterDDP_sma  \\\n",
       "1101_ZR_1_Aff_Video_left.wav           0.012903       0.010247   \n",
       "1101_ZR_1_Aff_Video_right.wav          0.012903       0.010247   \n",
       "1101_ZR_1_Arg_Video_left.wav           0.012314       0.009728   \n",
       "1101_ZR_1_Arg_Video_right.wav          0.012314       0.009728   \n",
       "1101_ZR_1_Coop_Video_left.wav          0.009803       0.008043   \n",
       "1101_ZR_1_Coop_Video_right.wav         0.009803       0.008043   \n",
       "\n",
       "                                shimmerLocal_sma  logHNR_sma  \\\n",
       "1101_ZR_1_Aff_Video_left.wav            0.080977  -50.087257   \n",
       "1101_ZR_1_Aff_Video_right.wav           0.080977  -50.087257   \n",
       "1101_ZR_1_Arg_Video_left.wav            0.075418  -53.347172   \n",
       "1101_ZR_1_Arg_Video_right.wav           0.075418  -53.347172   \n",
       "1101_ZR_1_Coop_Video_left.wav           0.057201  -65.081177   \n",
       "1101_ZR_1_Coop_Video_right.wav          0.057201  -65.081177   \n",
       "\n",
       "                                audspec_lengthL1norm_sma  \\\n",
       "1101_ZR_1_Aff_Video_left.wav                    0.294172   \n",
       "1101_ZR_1_Aff_Video_right.wav                   0.294172   \n",
       "1101_ZR_1_Arg_Video_left.wav                    0.294623   \n",
       "1101_ZR_1_Arg_Video_right.wav                   0.294623   \n",
       "1101_ZR_1_Coop_Video_left.wav                   0.196341   \n",
       "1101_ZR_1_Coop_Video_right.wav                  0.196341   \n",
       "\n",
       "                                audspecRasta_lengthL1norm_sma  \\\n",
       "1101_ZR_1_Aff_Video_left.wav                         1.873871   \n",
       "1101_ZR_1_Aff_Video_right.wav                        1.873871   \n",
       "1101_ZR_1_Arg_Video_left.wav                         1.841782   \n",
       "1101_ZR_1_Arg_Video_right.wav                        1.841782   \n",
       "1101_ZR_1_Coop_Video_left.wav                        1.728786   \n",
       "1101_ZR_1_Coop_Video_right.wav                       1.728786   \n",
       "\n",
       "                                pcm_RMSenergy_sma  pcm_zcr_sma  ...  \\\n",
       "1101_ZR_1_Aff_Video_left.wav             0.024732     0.104864  ...   \n",
       "1101_ZR_1_Aff_Video_right.wav            0.024732     0.104864  ...   \n",
       "1101_ZR_1_Arg_Video_left.wav             0.025335     0.107453  ...   \n",
       "1101_ZR_1_Arg_Video_right.wav            0.025335     0.107453  ...   \n",
       "1101_ZR_1_Coop_Video_left.wav            0.016421     0.091056  ...   \n",
       "1101_ZR_1_Coop_Video_right.wav           0.016421     0.091056  ...   \n",
       "\n",
       "                                mfcc_sma[5]  mfcc_sma[6]  mfcc_sma[7]  \\\n",
       "1101_ZR_1_Aff_Video_left.wav     -14.224147   -18.252089    -8.890177   \n",
       "1101_ZR_1_Aff_Video_right.wav    -14.224147   -18.252089    -8.890177   \n",
       "1101_ZR_1_Arg_Video_left.wav     -14.447663   -17.851768    -7.809336   \n",
       "1101_ZR_1_Arg_Video_right.wav    -14.447663   -17.851768    -7.809336   \n",
       "1101_ZR_1_Coop_Video_left.wav     -8.565414   -11.341309    -5.938381   \n",
       "1101_ZR_1_Coop_Video_right.wav    -8.565414   -11.341309    -5.938381   \n",
       "\n",
       "                                mfcc_sma[8]  mfcc_sma[9]  mfcc_sma[10]  \\\n",
       "1101_ZR_1_Aff_Video_left.wav      -1.768037     3.363763      1.097402   \n",
       "1101_ZR_1_Aff_Video_right.wav     -1.768037     3.363763      1.097402   \n",
       "1101_ZR_1_Arg_Video_left.wav      -2.176062     2.851089      1.735189   \n",
       "1101_ZR_1_Arg_Video_right.wav     -2.176062     2.851089      1.735189   \n",
       "1101_ZR_1_Coop_Video_left.wav     -1.141728     4.210069     -0.078988   \n",
       "1101_ZR_1_Coop_Video_right.wav    -1.141728     4.210069     -0.078988   \n",
       "\n",
       "                                mfcc_sma[11]  mfcc_sma[12]  mfcc_sma[13]  \\\n",
       "1101_ZR_1_Aff_Video_left.wav       -2.860701     -2.299195     -1.433254   \n",
       "1101_ZR_1_Aff_Video_right.wav      -2.860701     -2.299195     -1.433254   \n",
       "1101_ZR_1_Arg_Video_left.wav       -2.054115     -2.273605     -1.692027   \n",
       "1101_ZR_1_Arg_Video_right.wav      -2.054115     -2.273605     -1.692027   \n",
       "1101_ZR_1_Coop_Video_left.wav      -0.038832     -2.210269     -0.278161   \n",
       "1101_ZR_1_Coop_Video_right.wav     -0.038832     -2.210269     -0.278161   \n",
       "\n",
       "                                mfcc_sma[14]  \n",
       "1101_ZR_1_Aff_Video_left.wav       -4.291696  \n",
       "1101_ZR_1_Aff_Video_right.wav      -4.291696  \n",
       "1101_ZR_1_Arg_Video_left.wav       -3.767252  \n",
       "1101_ZR_1_Arg_Video_right.wav      -3.767252  \n",
       "1101_ZR_1_Coop_Video_left.wav      -1.972976  \n",
       "1101_ZR_1_Coop_Video_right.wav     -1.972976  \n",
       "\n",
       "[6 rows x 65 columns]"
      ]
     },
     "execution_count": 5,
     "metadata": {},
     "output_type": "execute_result"
    }
   ],
   "source": [
    "df = pd.read_csv(OUTPUT_CSVS + '/' + csv_name) \n",
    "df"
   ]
  },
  {
   "cell_type": "markdown",
   "id": "73bb23af-30c7-491a-b268-a50cabdd60e9",
   "metadata": {},
   "source": [
    "### We can use different analysis tools such as [PyRQA](https://pypi.org/project/PyRQA/) to analyze this time series."
   ]
  }
 ],
 "metadata": {
  "kernelspec": {
   "display_name": "Python 3 (ipykernel)",
   "language": "python",
   "name": "python3"
  },
  "language_info": {
   "codemirror_mode": {
    "name": "ipython",
    "version": 3
   },
   "file_extension": ".py",
   "mimetype": "text/x-python",
   "name": "python",
   "nbconvert_exporter": "python",
   "pygments_lexer": "ipython3",
   "version": "3.9.16"
  }
 },
 "nbformat": 4,
 "nbformat_minor": 5
}
